<svg width="359" height="643" viewBox="0 0 359 643" fill="none" xmlns="http://www.w3.org/2000/svg">
<g opacity="0.5" filter="url(#filter0_d_727_2463)">
<path d="M127.146 397.34V568.635" stroke="black" stroke-opacity="0.5" stroke-width="4" stroke-linecap="round" stroke-linejoin="round"/>
<path d="M172.799 165.529C172.799 165.529 211.31 103.274 224.334 53.8938L172.219 31.704C159.485 26.3255 153.203 13.8388 153.203 0H101.088C101.088 13.7394 94.8161 26.2261 82.0821 31.704L29.9673 53.8938C42.991 103.274 81.5028 165.529 81.5028 165.529H172.799Z" fill="#338559" fill-opacity="0.5"/>
<path d="M242.671 358.914C240.844 358.526 240.844 358.526 242.671 358.914C222.117 244.107 177.433 165.529 177.433 165.529C177.433 165.529 211.211 108.652 224.244 53.8935L181.488 35.6406L127.056 114.806L72.7141 35.74L29.9675 53.993C42.9912 108.752 76.769 165.618 76.769 165.618C76.769 165.618 32.1848 244.207 11.6305 358.914C10.2722 366.31 9.11363 373.806 7.95508 381.491H246.247C245.178 373.806 244.03 366.211 242.671 358.914Z" fill="#338559" fill-opacity="0.5"/>
<path d="M246.337 381.391H8.05492C7.37577 386.192 6.70662 390.905 6.12734 395.806C5.34832 402.427 4.57928 409.058 4 415.878C4.09988 415.878 4.18976 415.978 4.18976 415.978C19.3508 423.086 37.4881 416.644 44.6291 401.473C51.7702 416.554 69.9175 423.086 85.0686 415.978C91.4406 412.995 96.6541 407.806 99.6403 401.473C106.781 416.554 124.929 423.086 140.08 415.978C146.452 412.995 151.665 407.806 154.651 401.473C161.793 416.554 179.94 423.086 195.091 415.978C201.463 412.995 206.676 407.806 209.663 401.473C216.814 416.554 250.202 415.878 250.302 415.878C250.302 415.878 249.043 402.338 248.274 395.806C247.595 390.994 247.016 386.192 246.337 381.391Z" fill="#338559" fill-opacity="0.5"/>
<path opacity="0.3" d="M42.7016 48.5156L30.0574 53.8941C43.0911 108.653 76.8688 165.529 76.8688 165.529C76.8688 165.529 32.2746 244.108 11.7203 358.815C10.372 366.212 9.21347 373.708 8.05492 381.392C7.37577 386.194 6.70662 390.907 6.12734 395.808C5.34832 402.429 4.57928 409.06 4 415.88C4.09988 415.88 4.18976 415.98 4.18976 415.98C19.3508 423.088 37.4881 416.646 44.6291 401.475C49.0736 410.889 57.8526 417.033 67.5105 418.475C67.6004 274.281 109.009 165.43 109.009 165.43C60.749 112.401 42.7016 48.5156 42.7016 48.5156Z" fill="#343434" fill-opacity="0.5"/>
<path d="M8.05469 381.391H246.346" stroke="#343434" stroke-opacity="0.5" stroke-width="4" stroke-linecap="round" stroke-linejoin="round"/>
<path d="M177.433 165.527H76.8687" stroke="#343434" stroke-opacity="0.5" stroke-width="4" stroke-linecap="round" stroke-linejoin="round"/>
<path d="M145.683 237.575L127.346 165.527L109.009 237.575" stroke="#343434" stroke-opacity="0.5" stroke-width="4" stroke-linecap="round" stroke-linejoin="round"/>
<path opacity="0.3" d="M142.017 621.662C115.28 621.662 91.6301 609.841 76.8686 591.688C66.8311 603.21 60.8486 618.391 60.8486 634.824H193.742C193.742 625.41 191.815 616.572 188.339 608.499C175.016 616.76 159.196 621.662 142.017 621.662Z" fill="#133724" fill-opacity="0.5"/>
</g>
<g opacity="0.6">
<path d="M352.13 49.0767L351.085 48.9192C348.836 48.6185 344.211 48.2891 338.254 49.2199C335.662 37.1195 330.951 29 325.538 29C318.392 29 312.449 43.1482 311.074 61.9505C298.53 72.4327 285.957 90.9199 277.895 123.326C272.868 143.518 263.431 156.878 249.856 163.007C241.479 166.816 231.369 167.962 219.856 166.43C203.946 164.325 190.929 157.752 190.729 157.637C187.191 155.876 182.652 157.336 180.819 160.845C178.957 164.453 180.375 168.907 183.998 170.783C185.573 171.599 199.922 178.745 217.808 181.122C232.071 183.012 244.887 181.451 255.899 176.497C273.814 168.42 286.029 151.723 292.229 126.892C297.27 106.672 303.9 92.8388 310.874 83.3446L312.406 112.357L321.471 284.556C321.471 288.637 321.471 303 325.552 303C329.619 303 329.619 288.637 329.619 284.556L338.683 112.414L340.302 81.6405C340.302 81.1393 340.302 73.607 340.302 70.1272C340.302 67.8933 340.23 65.7023 340.087 63.5543C343.767 62.9958 346.631 63.1677 348.092 63.3538C348.593 63.4254 348.951 63.497 349.753 63.6545C353.576 64.1557 357.113 61.75 357.987 58.0268C358.918 54.0458 356.44 50.0648 352.13 49.0767ZM325.695 45.0241C328.058 45.0241 330.192 47.1865 331.767 50.6806C327.385 51.9551 322.602 53.9885 317.69 57.1103C319.036 49.9932 322.115 45.0241 325.695 45.0241ZM334.459 65.1581C334.459 76.2848 330.55 85.3065 325.695 85.3065C322.43 85.3065 319.638 81.1536 318.134 75.0819C323.891 69.583 329.562 66.5186 334.459 64.9147C334.459 65.0006 334.459 65.0865 334.459 65.1581Z" fill="#338559" fill-opacity="0.65"/>
</g>
<path d="M49 616.102H181.894C181.894 579.497 152.161 550 115.487 550C78.8127 550 49 579.596 49 616.102Z" fill="#338559" fill-opacity="0.64"/>
<defs>
<filter id="filter0_d_727_2463" x="0" y="0" width="254.302" height="642.824" filterUnits="userSpaceOnUse" color-interpolation-filters="sRGB">
<feFlood flood-opacity="0" result="BackgroundImageFix"/>
<feColorMatrix in="SourceAlpha" type="matrix" values="0 0 0 0 0 0 0 0 0 0 0 0 0 0 0 0 0 0 127 0" result="hardAlpha"/>
<feOffset dy="4"/>
<feGaussianBlur stdDeviation="2"/>
<feComposite in2="hardAlpha" operator="out"/>
<feColorMatrix type="matrix" values="0 0 0 0 0 0 0 0 0 0 0 0 0 0 0 0 0 0 0.25 0"/>
<feBlend mode="normal" in2="BackgroundImageFix" result="effect1_dropShadow_727_2463"/>
<feBlend mode="normal" in="SourceGraphic" in2="effect1_dropShadow_727_2463" result="shape"/>
</filter>
</defs>
</svg>
