<svg width="274" height="260" viewBox="0 0 274 260" fill="none" xmlns="http://www.w3.org/2000/svg">
<g opacity="0.3" clip-path="url(#clip0_474_4997)">
<path d="M45.8271 260.017C44.953 260.017 44.3701 259.709 43.7876 259.091C42.6222 257.856 42.6222 256.004 43.7876 254.769L75.2554 222.969C76.4208 221.734 78.169 221.734 79.3347 222.969C80.5001 224.204 80.5001 226.056 79.3347 227.292L47.8669 259.091C47.2837 259.708 46.4096 260.017 45.8271 260.017Z" fill="#338559" fill-opacity="0.5"/>
<path d="M211.907 256.93C211.324 256.93 210.45 256.622 209.868 256.004L181.313 227.6C180.148 226.365 180.148 224.513 181.313 223.278C182.479 222.043 184.227 222.043 185.393 223.278L213.947 251.681C215.112 252.916 215.112 254.769 213.947 256.004C213.364 256.622 212.781 256.93 211.907 256.93Z" fill="#338559" fill-opacity="0.5"/>
<path d="M182.771 182.832C182.771 220.498 154.216 250.754 118.67 250.754C90.9894 250.754 63.3096 220.497 63.3096 182.832C63.3096 145.166 90.9894 114.91 118.67 114.91C154.217 114.91 182.771 145.475 182.771 182.832Z" fill="#338559" fill-opacity="0.5"/>
<path d="M127.411 114.91C125.954 114.91 124.497 114.91 123.04 115.219C156.547 117.38 182.771 147.018 182.771 182.832C182.771 218.645 156.547 248.284 123.04 250.445C124.497 250.445 125.954 250.754 127.411 250.754C162.958 250.754 191.512 220.497 191.512 182.832C191.512 145.166 162.958 114.91 127.411 114.91Z" fill="#338559" fill-opacity="0.5"/>
<path d="M136.152 114.91C134.695 114.91 133.238 114.91 131.781 115.219C165.289 117.38 191.512 147.018 191.512 182.832C191.512 218.645 165.289 248.284 131.781 250.445C133.238 250.445 134.695 250.754 136.152 250.754C171.699 250.754 200.253 220.497 200.253 182.832C200.253 145.166 171.699 114.91 136.152 114.91Z" fill="#338559" fill-opacity="0.5"/>
<path d="M127.411 250.754C128.868 250.754 130.324 250.754 131.781 250.445C98.2738 248.284 72.0506 218.645 72.0506 182.832C72.0506 147.018 98.2738 117.38 131.781 115.219C130.324 114.91 128.868 114.91 127.411 114.91C92.1551 114.91 63.3096 145.475 63.3096 182.832C63.3096 220.189 92.1551 250.754 127.411 250.754Z" fill="#338559" fill-opacity="0.5"/>
<path d="M77.8779 96.3835C77.8779 106.572 70.0109 114.908 60.3957 114.908C50.7805 114.908 42.9136 106.572 42.9136 96.3835C42.9136 86.1952 50.7805 77.8594 60.3957 77.8594C70.0109 77.8594 77.8779 86.1952 77.8779 96.3835Z" fill="#338559" fill-opacity="0.5"/>
<path d="M203.167 96.3835C203.167 106.572 195.3 114.908 185.684 114.908C199.379 114.908 176.943 114.908 176.943 96.3835C176.943 86.1952 183.936 77.8594 185.684 77.8594C195.3 77.8594 203.167 86.1952 203.167 96.3835Z" fill="#338559" fill-opacity="0.5"/>
<path d="M194.425 77.8594C192.968 77.8594 191.512 78.168 190.055 78.477C197.63 80.638 203.166 87.739 203.166 96.3835C203.166 105.028 197.63 112.129 190.055 114.29C191.512 114.599 192.968 114.908 194.425 114.908C204.04 114.908 211.907 106.572 211.907 96.3835C211.907 86.1952 204.04 77.8594 194.425 77.8594Z" fill="#338559" fill-opacity="0.5"/>
<path d="M60.3957 114.908C61.8527 114.908 63.3093 114.599 64.7662 114.29C57.1905 112.129 51.6546 105.028 51.6546 96.3835C51.6546 87.739 57.1905 80.638 64.7662 78.477C63.3096 78.168 61.8527 77.8594 60.3957 77.8594C50.7805 77.8594 42.9136 86.1952 42.9136 96.3835C42.9136 106.572 50.7805 114.908 60.3957 114.908Z" fill="#338559" fill-opacity="0.5"/>
<path d="M127.411 253.839C90.4072 253.839 60.396 222.039 60.396 182.829C60.396 143.62 90.4072 111.82 127.411 111.82C164.415 111.82 194.426 143.62 194.426 182.83C194.426 222.039 164.415 253.839 127.411 253.839ZM127.411 117.995C93.6121 117.995 66.2235 147.016 66.2235 182.829C66.2235 218.643 93.6121 247.664 127.411 247.664C161.21 247.664 188.598 218.643 188.598 182.829C188.598 147.016 161.21 117.995 127.411 117.995Z" fill="#2F2F2F" fill-opacity="0.5"/>
<path d="M60.3957 117.996C49.0323 117.996 40 108.426 40 96.3848C40 84.3441 49.0323 74.7734 60.3957 74.7734C71.7591 74.7734 80.7914 84.3441 80.7914 96.3848C80.7914 108.426 71.7591 117.996 60.3957 117.996ZM60.3957 80.9479C52.2375 80.9479 45.8272 87.74 45.8272 96.3848C45.8272 105.03 52.2372 111.822 60.3957 111.822C68.5543 111.822 74.9643 105.029 74.9643 96.3848C74.9643 87.7403 68.5543 80.9479 60.3957 80.9479Z" fill="#2F2F2F" fill-opacity="0.5"/>
<path d="M194.426 117.996C183.063 117.996 174.03 108.426 174.03 96.3848C174.03 84.3441 183.063 74.7734 194.426 74.7734C205.789 74.7734 214.822 84.3441 214.822 96.3848C214.822 108.426 205.789 117.996 194.426 117.996ZM194.426 80.9479C186.268 80.9479 179.857 87.74 179.857 96.3848C179.857 105.03 186.267 111.822 194.426 111.822C202.584 111.822 208.995 105.03 208.995 96.3848C208.995 87.74 202.584 80.9479 194.426 80.9479Z" fill="#2F2F2F" fill-opacity="0.5"/>
<path d="M84.7881 129.464L88.9087 125.098L72.8388 108.07L68.7182 112.436L84.7881 129.464Z" fill="#2F2F2F" fill-opacity="0.5"/>
<path d="M168.989 129.465L185.059 112.438L180.938 108.071L164.868 125.099L168.989 129.465Z" fill="#2F2F2F" fill-opacity="0.5"/>
<path d="M42.9135 260.013C42.0394 260.013 41.4565 259.705 40.874 259.087C39.7087 257.852 39.7087 256 40.874 254.765L72.3419 222.965C73.5072 221.73 75.2554 221.73 76.4212 222.965C77.5865 224.2 77.5865 226.052 76.4212 227.288L44.9533 259.087C44.3704 259.705 43.4963 260.013 42.9135 260.013Z" fill="#2F2F2F" fill-opacity="0.5"/>
<path d="M211.908 260.013C211.326 260.013 210.451 259.705 209.869 259.087L178.692 227.596C177.527 226.361 177.527 224.509 178.692 223.274C179.858 222.039 181.606 222.039 182.772 223.274L214.24 254.765C215.405 256 215.405 257.852 214.24 259.087C213.365 259.704 212.783 260.013 211.908 260.013Z" fill="#2F2F2F" fill-opacity="0.5"/>
<path d="M144.31 170.482C119.835 170.482 100.022 163.689 88.3672 154.427C81.6656 148.87 77.8779 142.695 77.8779 136.521C77.8779 134.668 79.0433 133.434 80.7915 133.434C82.5397 133.434 83.7051 134.668 83.7051 136.521C83.7051 140.534 86.6187 145.165 92.1549 149.488C108.472 162.763 143.727 170.482 185.101 158.132C186.558 157.824 188.307 158.75 188.598 160.293C188.889 161.837 188.015 163.689 186.558 163.998C171.407 168.629 157.422 170.482 144.31 170.482Z" fill="#2F2F2F" fill-opacity="0.5"/>
<path d="M145.767 201.354C115.465 201.354 88.3674 192.401 73.5076 180.669C66.806 175.112 63.3096 169.555 63.3096 164.306C63.3096 162.454 64.4749 161.219 66.2231 161.219C67.9714 161.219 69.1367 162.454 69.1367 164.306C69.1367 167.393 72.0503 171.716 77.0037 175.729C106.432 199.193 159.461 197.649 187.724 189.314C189.181 188.696 190.929 189.931 191.22 191.475C191.803 193.018 190.638 194.871 189.181 195.179C174.904 199.502 160.044 201.354 145.767 201.354Z" fill="#2F2F2F" fill-opacity="0.5"/>
<path d="M158.004 229.448C106.141 229.448 76.1293 219.26 62.1436 196.722C61.2695 195.179 61.5607 193.326 63.0177 192.4C64.4746 191.474 66.2229 191.782 67.097 193.326C81.6655 216.173 115.464 225.435 177.234 222.965C178.691 222.965 180.148 224.2 180.148 226.052C180.148 227.904 178.983 229.139 177.234 229.139C170.242 229.448 164.123 229.448 158.004 229.448Z" fill="#2F2F2F" fill-opacity="0.5"/>
<path d="M90.1152 155.044C88.367 155.044 87.2017 153.809 87.2017 151.957C87.2017 150.104 88.367 148.87 90.1152 148.87C105.849 148.87 118.961 138.373 133.529 113.982C134.403 112.439 136.152 112.13 137.609 113.056C139.066 113.982 139.357 115.835 138.483 117.379C127.411 135.903 112.842 155.044 90.1152 155.044Z" fill="#2F2F2F" fill-opacity="0.5"/>
<path d="M117.212 167.392C115.464 167.392 114.299 166.157 114.299 164.305C114.299 162.453 115.464 161.218 117.212 161.218C136.443 161.218 150.137 142.694 160.918 124.787C161.792 123.243 163.54 122.935 164.997 123.861C166.454 124.787 166.745 126.639 165.871 128.183C153.925 147.633 139.065 167.392 117.212 167.392Z" fill="#2F2F2F" fill-opacity="0.5"/>
<path d="M54.5688 102.558C52.8206 102.558 51.6553 101.323 51.6553 99.4704C51.6553 92.6783 56.8999 87.1211 63.3099 87.1211C65.0581 87.1211 66.2235 88.3559 66.2235 90.2083C66.2235 92.0607 65.0581 93.2956 63.3099 93.2956C60.1047 93.2956 57.4824 96.0742 57.4824 99.4704C57.4824 101.322 56.3171 102.558 54.5688 102.558Z" fill="#2F2F2F" fill-opacity="0.5"/>
<path d="M188.599 102.558C186.85 102.558 185.685 101.323 185.685 99.4704C185.685 92.6783 190.93 87.1211 197.34 87.1211C199.088 87.1211 200.253 88.3559 200.253 90.2083C200.253 92.0607 199.088 93.2956 197.34 93.2956C194.135 93.2956 191.512 96.0742 191.512 99.4704C191.512 101.322 190.347 102.558 188.599 102.558Z" fill="#2F2F2F" fill-opacity="0.5"/>
</g>
<defs>
<clipPath id="clip0_474_4997">
<rect width="274" height="260" fill="white"/>
</clipPath>
</defs>
</svg>
