<svg width="167" height="111" viewBox="0 0 167 111" fill="none" xmlns="http://www.w3.org/2000/svg">
<g opacity="0.7">
<path opacity="0.2" d="M0 7.42969L45.0536 17.9796L24.6991 25.9021L23.1011 47.8071L0 7.42969Z" fill="white"/>
<path d="M135.67 104.473C127.461 109.356 106.247 112.748 103.6 98.4836C100.944 84.2292 117.912 54.2104 144.619 34.4797C166.641 18.2019 171.705 34.5301 150.961 52.7608C132.904 68.6762 101.912 83.5849 76.2047 72.7934C50.4968 62.0019 72.3795 30.9262 81.8975 22.1179C88.3295 16.1483 95.2508 17.7791 89.2683 24.0104C83.2758 30.2417 56.749 40.8016 29.1436 18.6147" stroke="#338559" stroke-opacity="0.5" stroke-width="4" stroke-linecap="round" stroke-linejoin="round"/>
<path d="M4.28467 0L49.3383 10.5499L28.9737 18.4623L27.3758 40.3674L4.28467 0Z" fill="#338559"/>
</g>
</svg>
