<svg width="174" height="50" viewBox="0 0 174 50" fill="none" xmlns="http://www.w3.org/2000/svg">
<path d="M18.1135 42.5759C16.6574 42.0436 15.4188 41.5592 13.9824 40.9973C15.7237 39.2988 17.2516 38.7991 19.6317 39.3082C25.1304 40.4843 30.0594 39.0282 33.8567 34.834C37.6353 30.6606 38.6235 25.7497 36.7176 20.6118C35.8427 18.2532 35.3938 16.2239 36.6465 14.0391C41.416 18.152 42.5637 26.5278 39.2061 33.1325C35.3412 40.7351 27.5189 44.2916 18.1135 42.5759Z" fill="#AEB5B1"/>
<path d="M4.77671 22.0225C7.78514 7.95542 23.6238 4.50953 30.8234 9.60873C29.2605 11.0902 27.6824 11.5427 25.3267 11.1125C14.1056 9.0633 4.83246 19.8503 8.93495 30.1974C9.84342 32.4887 9.75133 34.2531 8.43902 36.3697C5.1057 32.0772 3.80306 27.4463 4.77671 22.0225Z" fill="#AEB5B1"/>
<path d="M22.074 17.1803C26.12 14.9173 29.998 12.7573 33.8823 10.5938C35.5257 13.6687 35.3122 16.7514 32.7619 18.365C27.134 21.9257 21.2489 25.1051 15.4709 28.4388C13.4701 25.1173 14.3034 21.8636 17.4763 19.8023C18.8958 18.8801 20.426 18.118 22.074 17.1803Z" fill="#4BA5A1"/>
<path d="M23.8713 25.7593C25.4469 24.8622 26.8592 24.0753 28.2499 23.2542C30.1602 22.1263 31.203 22.9824 30.8958 24.7776C30.575 26.652 30.0971 29.1902 28.7374 30.0878C23.242 33.7157 17.3801 36.8228 11.6656 40.1151C9.50863 36.7587 10.2341 33.6426 13.6241 31.5593C16.9065 29.5421 20.3344 27.747 23.8713 25.7593Z" fill="#4BA6A1"/>
<path d="M65.48 32.24C64.16 32.24 63.0067 31.94 62.02 31.34C61.0333 30.74 60.2667 29.9067 59.72 28.84C59.1733 27.76 58.9 26.5067 58.9 25.08C58.9 23.64 59.18 22.3733 59.74 21.28C60.3133 20.1733 61.12 19.3133 62.16 18.7C63.2133 18.0733 64.46 17.76 65.9 17.76C67.54 17.76 68.9 18.1533 69.98 18.94C71.06 19.7267 71.76 20.8133 72.08 22.2H69.22C69.0067 21.5467 68.62 21.04 68.06 20.68C67.5 20.3067 66.78 20.12 65.9 20.12C64.5 20.12 63.42 20.5667 62.66 21.46C61.9 22.34 61.52 23.5533 61.52 25.1C61.52 26.6467 61.8933 27.8467 62.64 28.7C63.4 29.54 64.4267 29.96 65.72 29.96C66.9867 29.96 67.94 29.62 68.58 28.94C69.2333 28.2467 69.6267 27.34 69.76 26.22H66.22V24.3H72.34V32H69.98L69.78 30.16C69.3267 30.8267 68.76 31.34 68.08 31.7C67.4 32.06 66.5333 32.24 65.48 32.24ZM74.7688 32V22.08H77.0488L77.2888 23.94C77.6488 23.3 78.1354 22.7933 78.7487 22.42C79.3754 22.0333 80.1088 21.84 80.9488 21.84V24.54H80.2288C79.6688 24.54 79.1688 24.6267 78.7288 24.8C78.2888 24.9733 77.9421 25.2733 77.6888 25.7C77.4488 26.1267 77.3288 26.72 77.3288 27.48V32H74.7688ZM87.3427 32.24C86.3427 32.24 85.456 32.0267 84.6827 31.6C83.9093 31.1733 83.3027 30.5733 82.8627 29.8C82.4227 29.0267 82.2027 28.1333 82.2027 27.12C82.2027 26.0933 82.416 25.18 82.8427 24.38C83.2827 23.58 83.8827 22.96 84.6427 22.52C85.416 22.0667 86.3227 21.84 87.3627 21.84C88.336 21.84 89.196 22.0533 89.9427 22.48C90.6893 22.9067 91.2693 23.4933 91.6827 24.24C92.1093 24.9733 92.3227 25.7933 92.3227 26.7C92.3227 26.8467 92.316 27 92.3027 27.16C92.3027 27.32 92.296 27.4867 92.2827 27.66H84.7427C84.796 28.4333 85.0627 29.04 85.5427 29.48C86.036 29.92 86.6293 30.14 87.3227 30.14C87.8427 30.14 88.276 30.0267 88.6227 29.8C88.9827 29.56 89.2493 29.2533 89.4227 28.88H92.0227C91.836 29.5067 91.5227 30.08 91.0827 30.6C90.656 31.1067 90.1227 31.5067 89.4827 31.8C88.856 32.0933 88.1427 32.24 87.3427 32.24ZM87.3627 23.92C86.736 23.92 86.1827 24.1 85.7027 24.46C85.2227 24.8067 84.916 25.34 84.7827 26.06H89.7227C89.6827 25.4067 89.4427 24.8867 89.0027 24.5C88.5627 24.1133 88.016 23.92 87.3627 23.92ZM99.2958 32.24C98.2958 32.24 97.4091 32.0267 96.6358 31.6C95.8624 31.1733 95.2558 30.5733 94.8158 29.8C94.3758 29.0267 94.1558 28.1333 94.1558 27.12C94.1558 26.0933 94.3691 25.18 94.7958 24.38C95.2358 23.58 95.8358 22.96 96.5958 22.52C97.3691 22.0667 98.2758 21.84 99.3158 21.84C100.289 21.84 101.149 22.0533 101.896 22.48C102.642 22.9067 103.222 23.4933 103.636 24.24C104.062 24.9733 104.276 25.7933 104.276 26.7C104.276 26.8467 104.269 27 104.256 27.16C104.256 27.32 104.249 27.4867 104.236 27.66H96.6958C96.7491 28.4333 97.0158 29.04 97.4958 29.48C97.9891 29.92 98.5824 30.14 99.2758 30.14C99.7958 30.14 100.229 30.0267 100.576 29.8C100.936 29.56 101.202 29.2533 101.376 28.88H103.976C103.789 29.5067 103.476 30.08 103.036 30.6C102.609 31.1067 102.076 31.5067 101.436 31.8C100.809 32.0933 100.096 32.24 99.2958 32.24ZM99.3158 23.92C98.6891 23.92 98.1358 24.1 97.6558 24.46C97.1758 24.8067 96.8691 25.34 96.7358 26.06H101.676C101.636 25.4067 101.396 24.8867 100.956 24.5C100.516 24.1133 99.9691 23.92 99.3158 23.92ZM106.429 32V22.08H108.689L108.889 23.76C109.196 23.1733 109.636 22.7067 110.209 22.36C110.796 22.0133 111.482 21.84 112.269 21.84C113.496 21.84 114.449 22.2267 115.129 23C115.809 23.7733 116.149 24.9067 116.149 26.4V32H113.589V26.64C113.589 25.7867 113.416 25.1333 113.069 24.68C112.722 24.2267 112.182 24 111.449 24C110.729 24 110.136 24.2533 109.669 24.76C109.216 25.2667 108.989 25.9733 108.989 26.88V32H106.429ZM122.697 32.24C121.817 32.24 121.044 32.1 120.377 31.82C119.71 31.5267 119.177 31.1267 118.777 30.62C118.377 30.1133 118.137 29.5267 118.057 28.86H120.637C120.717 29.2467 120.93 29.58 121.277 29.86C121.637 30.1267 122.097 30.26 122.657 30.26C123.217 30.26 123.624 30.1467 123.877 29.92C124.144 29.6933 124.277 29.4333 124.277 29.14C124.277 28.7133 124.09 28.4267 123.717 28.28C123.344 28.12 122.824 27.9667 122.157 27.82C121.73 27.7267 121.297 27.6133 120.857 27.48C120.417 27.3467 120.01 27.18 119.637 26.98C119.277 26.7667 118.984 26.5 118.757 26.18C118.53 25.8467 118.417 25.44 118.417 24.96C118.417 24.08 118.764 23.34 119.457 22.74C120.164 22.14 121.15 21.84 122.417 21.84C123.59 21.84 124.524 22.1133 125.217 22.66C125.924 23.2067 126.344 23.96 126.477 24.92H124.057C123.91 24.1867 123.357 23.82 122.397 23.82C121.917 23.82 121.544 23.9133 121.277 24.1C121.024 24.2867 120.897 24.52 120.897 24.8C120.897 25.0933 121.09 25.3267 121.477 25.5C121.864 25.6733 122.377 25.8333 123.017 25.98C123.71 26.14 124.344 26.32 124.917 26.52C125.504 26.7067 125.97 26.9933 126.317 27.38C126.664 27.7533 126.837 28.2933 126.837 29C126.85 29.6133 126.69 30.1667 126.357 30.66C126.024 31.1533 125.544 31.54 124.917 31.82C124.29 32.1 123.55 32.24 122.697 32.24ZM133.212 32C132.172 32 131.339 31.7467 130.712 31.24C130.086 30.7333 129.772 29.8333 129.772 28.54V24.22H128.072V22.08H129.772L130.072 19.42H132.332V22.08H135.012V24.22H132.332V28.56C132.332 29.04 132.432 29.3733 132.632 29.56C132.846 29.7333 133.206 29.82 133.712 29.82H134.952V32H133.212ZM138.59 20.54C138.123 20.54 137.737 20.4 137.43 20.12C137.137 19.84 136.99 19.4867 136.99 19.06C136.99 18.6333 137.137 18.2867 137.43 18.02C137.737 17.74 138.123 17.6 138.59 17.6C139.057 17.6 139.437 17.74 139.73 18.02C140.037 18.2867 140.19 18.6333 140.19 19.06C140.19 19.4867 140.037 19.84 139.73 20.12C139.437 20.4 139.057 20.54 138.59 20.54ZM137.31 32V22.08H139.87V32H137.31ZM146.962 32C145.922 32 145.089 31.7467 144.462 31.24C143.836 30.7333 143.522 29.8333 143.522 28.54V24.22H141.822V22.08H143.522L143.822 19.42H146.082V22.08H148.762V24.22H146.082V28.56C146.082 29.04 146.182 29.3733 146.382 29.56C146.596 29.7333 146.956 29.82 147.462 29.82H148.702V32H146.962ZM155.566 32.24C154.553 32.24 153.66 32.02 152.886 31.58C152.113 31.14 151.5 30.5267 151.046 29.74C150.606 28.9533 150.386 28.0533 150.386 27.04C150.386 26.0267 150.606 25.1267 151.046 24.34C151.5 23.5533 152.113 22.94 152.886 22.5C153.66 22.06 154.553 21.84 155.566 21.84C156.833 21.84 157.9 22.1733 158.766 22.84C159.633 23.4933 160.186 24.4 160.426 25.56H157.726C157.593 25.08 157.326 24.7067 156.926 24.44C156.54 24.16 156.08 24.02 155.546 24.02C154.84 24.02 154.24 24.2867 153.746 24.82C153.253 25.3533 153.006 26.0933 153.006 27.04C153.006 27.9867 153.253 28.7267 153.746 29.26C154.24 29.7933 154.84 30.06 155.546 30.06C156.08 30.06 156.54 29.9267 156.926 29.66C157.326 29.3933 157.593 29.0133 157.726 28.52H160.426C160.186 29.64 159.633 30.54 158.766 31.22C157.9 31.9 156.833 32.24 155.566 32.24ZM162.698 32V17.6H165.258V23.6C165.592 23.0533 166.038 22.6267 166.598 22.32C167.172 22 167.825 21.84 168.558 21.84C169.785 21.84 170.732 22.2267 171.398 23C172.078 23.7733 172.418 24.9067 172.418 26.4V32H169.878V26.64C169.878 25.7867 169.705 25.1333 169.358 24.68C169.025 24.2267 168.492 24 167.758 24C167.038 24 166.438 24.2533 165.958 24.76C165.492 25.2667 165.258 25.9733 165.258 26.88V32H162.698Z" fill="black"/>
</svg>
