<svg width="18" height="20" viewBox="0 0 18 20" fill="none" xmlns="http://www.w3.org/2000/svg">
<path d="M5.99902 15V16C5.99902 16.7956 6.31509 17.5587 6.8777 18.1213C7.44031 18.6839 8.20337 19 8.99902 19C9.79467 19 10.5577 18.6839 11.1203 18.1213C11.683 17.5587 11.999 16.7956 11.999 16V15M6.99902 3C6.99902 2.46957 7.20974 1.96086 7.58481 1.58579C7.95988 1.21071 8.46859 1 8.99902 1C9.52946 1 10.0382 1.21071 10.4132 1.58579C10.7883 1.96086 10.999 2.46957 10.999 3C12.1474 3.54303 13.1264 4.38833 13.8311 5.4453C14.5357 6.50227 14.9395 7.73107 14.999 9V12C15.0743 12.6217 15.2945 13.2171 15.6418 13.7381C15.9892 14.2592 16.4541 14.6914 16.999 15H0.999023C1.54396 14.6914 2.00883 14.2592 2.35621 13.7381C2.70359 13.2171 2.92377 12.6217 2.99902 12V9C3.05858 7.73107 3.46232 6.50227 4.16697 5.4453C4.87162 4.38833 5.85061 3.54303 6.99902 3Z" stroke="#5F6980" stroke-width="1.38462" stroke-linecap="round" stroke-linejoin="round"/>
</svg>
