<svg width="19" height="18" viewBox="0 0 19 18" fill="none" xmlns="http://www.w3.org/2000/svg">
<path fill-rule="evenodd" clip-rule="evenodd" d="M2.02246 1.94922C2.02246 1.81115 2.13439 1.69922 2.27246 1.69922H6.27246C6.41053 1.69922 6.52246 1.81115 6.52246 1.94922V5.94922C6.52246 6.08729 6.41053 6.19922 6.27246 6.19922H2.27246C2.13439 6.19922 2.02246 6.08729 2.02246 5.94922V1.94922ZM2.27246 0.199219C1.30596 0.199219 0.522461 0.98272 0.522461 1.94922V5.94922C0.522461 6.91572 1.30596 7.69922 2.27246 7.69922H6.27246C7.23896 7.69922 8.02246 6.91572 8.02246 5.94922V1.94922C8.02246 0.98272 7.23896 0.199219 6.27246 0.199219H2.27246ZM12.0225 1.94922C12.0225 1.81115 12.1344 1.69922 12.2725 1.69922H16.2725C16.4105 1.69922 16.5225 1.81115 16.5225 1.94922V5.94922C16.5225 6.08729 16.4105 6.19922 16.2725 6.19922H12.2725C12.1344 6.19922 12.0225 6.08729 12.0225 5.94922V1.94922ZM12.2725 0.199219C11.306 0.199219 10.5225 0.98272 10.5225 1.94922V5.94922C10.5225 6.91572 11.306 7.69922 12.2725 7.69922H16.2725C17.239 7.69922 18.0225 6.91572 18.0225 5.94922V1.94922C18.0225 0.98272 17.239 0.199219 16.2725 0.199219H12.2725ZM2.27246 11.6992C2.13439 11.6992 2.02246 11.8111 2.02246 11.9492V15.9492C2.02246 16.0873 2.13439 16.1992 2.27246 16.1992H6.27246C6.41053 16.1992 6.52246 16.0873 6.52246 15.9492V11.9492C6.52246 11.8111 6.41053 11.6992 6.27246 11.6992H2.27246ZM0.522461 11.9492C0.522461 10.9827 1.30596 10.1992 2.27246 10.1992H6.27246C7.23896 10.1992 8.02246 10.9827 8.02246 11.9492V15.9492C8.02246 16.9157 7.23896 17.6992 6.27246 17.6992H2.27246C1.30596 17.6992 0.522461 16.9157 0.522461 15.9492V11.9492ZM12.0225 11.9492C12.0225 11.8111 12.1344 11.6992 12.2725 11.6992H16.2725C16.4105 11.6992 16.5225 11.8111 16.5225 11.9492V15.9492C16.5225 16.0873 16.4105 16.1992 16.2725 16.1992H12.2725C12.1344 16.1992 12.0225 16.0873 12.0225 15.9492V11.9492ZM12.2725 10.1992C11.306 10.1992 10.5225 10.9827 10.5225 11.9492V15.9492C10.5225 16.9157 11.306 17.6992 12.2725 17.6992H16.2725C17.239 17.6992 18.0225 16.9157 18.0225 15.9492V11.9492C18.0225 10.9827 17.239 10.1992 16.2725 10.1992H12.2725Z" fill="#5F6980"/>
</svg>
